<svg viewBox="0 0 168 30" xmlns="http://www.w3.org/2000/svg" xmlns:xlink="http://www.w3.org/1999/xlink"><style>:root&gt;svg{display:none}:root&gt;svg:target{display:block}</style><svg fill="none" viewBox="0 0 14 8" id="css--arrow_accordion" xmlns="http://www.w3.org/2000/svg"><path d="M1 7l6-6 6 6" stroke="#000" stroke-width="2" stroke-linecap="round" stroke-linejoin="round"/></svg><svg fill="none" viewBox="0 0 37 30" id="css--email" xmlns="http://www.w3.org/2000/svg"><path d="M3.335 29.667c-1.009 0-1.872-.36-2.59-1.078C.024 27.87-.334 27.007-.333 26V4c0-1.008.36-1.872 1.078-2.59C1.465.69 2.328.332 3.335.333h29.333c1.008 0 1.872.36 2.59 1.079.72.718 1.078 1.581 1.077 2.588v22c0 1.009-.36 1.872-1.078 2.59-.719.72-1.582 1.078-2.589 1.077H3.335zM18 16.513a1.938 1.938 0 00.962-.275l12.972-8.113c.244-.153.427-.344.55-.574.122-.23.183-.481.183-.755 0-.611-.26-1.07-.78-1.375-.519-.306-1.053-.29-1.603.046L18 13.167l-12.283-7.7c-.55-.336-1.085-.344-1.604-.022-.52.321-.78.772-.78 1.351 0 .306.062.573.184.803.122.23.306.405.55.526l12.97 8.113a1.93 1.93 0 00.963.275z" fill="#000"/></svg><svg fill="none" viewBox="0 0 168 24" id="css--logotype" xmlns="http://www.w3.org/2000/svg"><path d="M78.897 2.108l-7.12 18.004h5.002l4.8-13.337 4.796 13.337h5.005L84.26 2.108h-5.363zm40.068-.448c-5.757 0-9.985 3.707-9.985 9.449 0 5.826 4.134 9.449 9.985 9.449 5.85 0 9.984-3.622 9.984-9.45 0-5.83-4.134-9.448-9.984-9.448zm0 14.904c-3.088 0-5.245-2.241-5.245-5.455s2.157-5.456 5.245-5.456c3.188 0 5.246 2.142 5.246 5.456 0 3.26-2.106 5.455-5.246 5.455zM57.702 2.108L49.89 20.112h5.35l7.356-4.273h-6.047l3.604-9.297 5.26 13.57h5.003L62.602 2.108h-4.9zm42.577 0h-7.441v18.004h4.737V6.075h2.337c1.682 0 3.156.866 3.156 2.756 0 1.892-1.474 2.757-3.156 2.757h-1.27l2.147 3.612c3.468 0 6.808-2.168 6.808-6.664.002-4.49-3.299-6.428-7.318-6.428zm59.909 0h-4.904l-7.811 18.004h4.999l5.265-13.57 3.604 9.297h-6.05l7.359 4.273h5.349l-7.811-18.004zm-19.901 3.561c1.661 0 3.323.509 4.588 1.21l1.552-3.573c-1.792-1.042-4.031-1.639-6.071-1.639-6.414 0-9.829 4.573-9.829 9.444 0 4.87 3.415 9.447 9.829 9.447 2.04 0 4.279-.596 6.071-1.642l-1.552-3.572c-1.266.703-2.927 1.21-4.588 1.21-2.551 0-5.007-2.128-5.007-5.442-.001-3.316 2.456-5.443 5.007-5.443zM10.345 0L0 6h20.69L10.346 0zM0 17.997L10.345 24 0 6v11.997z" fill="#000"/><path d="M20.69 18.001v-12L10.344 24l10.346-5.999zM31.038 24L20.69 17.997h20.695L31.038 24zM20.691 6l10.347-6L20.69 17.997V6.001z" fill="#000"/><path d="M41.385 5.998v12L31.037 0l10.348 5.998z" fill="#000"/></svg></svg>