<svg width="37" height="30" fill="none" xmlns="http://www.w3.org/2000/svg"><path d="M3.335 29.667c-1.009 0-1.872-.36-2.59-1.078C.024 27.87-.334 27.007-.333 26V4c0-1.008.36-1.872 1.078-2.59C1.465.69 2.328.332 3.335.333h29.333c1.008 0 1.872.36 2.59 1.079.72.718 1.078 1.581 1.077 2.588v22c0 1.009-.36 1.872-1.078 2.59-.719.72-1.582 1.078-2.589 1.077H3.335zM18 16.513a1.938 1.938 0 00.962-.275l12.972-8.113c.244-.153.427-.344.55-.574.122-.23.183-.481.183-.755 0-.611-.26-1.07-.78-1.375-.519-.306-1.053-.29-1.603.046L18 13.167l-12.283-7.7c-.55-.336-1.085-.344-1.604-.022-.52.321-.78.772-.78 1.351 0 .306.062.573.184.803.122.23.306.405.55.526l12.97 8.113a1.93 1.93 0 00.963.275z" fill="#000"/></svg>