<svg width="37" height="30" viewBox="0 0 37 30" fill="none" xmlns="http://www.w3.org/2000/svg">
<path d="M3.33464 29.6668C2.3263 29.6668 1.4628 29.3075 0.744138 28.5888C0.0254716 27.8702 -0.33325 27.0073 -0.332028 26.0002V4.00017C-0.332028 2.99183 0.0273052 2.12833 0.745972 1.40967C1.46464 0.690999 2.32753 0.332277 3.33464 0.333499H32.668C33.6763 0.333499 34.5398 0.692832 35.2585 1.4115C35.9771 2.13017 36.3359 2.99305 36.3346 4.00017V26.0002C36.3346 27.0085 35.9753 27.872 35.2566 28.5907C34.538 29.3093 33.6751 29.6681 32.668 29.6668H3.33464ZM18.0013 16.5127C18.1541 16.5127 18.3148 16.4894 18.4835 16.443C18.6521 16.3966 18.8122 16.3281 18.9638 16.2377L31.9346 8.12517C32.1791 7.97239 32.3624 7.78111 32.4846 7.55133C32.6069 7.32155 32.668 7.06978 32.668 6.796C32.668 6.18489 32.4082 5.72655 31.8888 5.421C31.3694 5.11544 30.8346 5.13072 30.2846 5.46683L18.0013 13.1668L5.71797 5.46683C5.16797 5.13072 4.63325 5.12339 4.11381 5.44483C3.59436 5.76628 3.33464 6.21667 3.33464 6.796C3.33464 7.10155 3.39575 7.36922 3.51797 7.599C3.64019 7.82878 3.82353 8.00417 4.06797 8.12517L17.0388 16.2377C17.1916 16.3293 17.3523 16.3984 17.521 16.4448C17.6896 16.4913 17.8497 16.5139 18.0013 16.5127Z" fill="black"/>
</svg>
