<svg width="168" height="24" viewBox="0 0 168 24" fill="none" xmlns="http://www.w3.org/2000/svg">
<path d="M78.8966 2.10779L71.7773 20.1117H76.779L81.5781 6.7751L86.3754 20.1117H91.3798L84.2605 2.10779H78.8966Z" fill="black"/>
<path d="M118.965 1.65967C113.208 1.65967 108.98 5.36657 108.98 11.1088C108.98 16.9354 113.114 20.558 118.965 20.558C124.815 20.558 128.949 16.9363 128.949 11.1088C128.949 5.2786 124.815 1.65967 118.965 1.65967ZM118.965 16.5643C115.877 16.5643 113.72 14.3227 113.72 11.1088C113.72 7.89497 115.877 5.65341 118.965 5.65341C122.153 5.65341 124.211 7.79508 124.211 11.1088C124.211 14.3694 122.105 16.5643 118.965 16.5643Z" fill="black"/>
<path d="M57.7023 2.10779L49.8887 20.1117H55.2389L62.5954 15.8394H56.5481L60.152 6.54233L65.4128 20.1117H70.4154L62.6018 2.10779H57.7023Z" fill="black"/>
<path d="M100.279 2.10779H92.8379V20.1117H97.575V6.07496H99.9125C101.594 6.07496 103.068 6.94097 103.068 8.83062C103.068 10.723 101.594 11.5881 99.9125 11.5881H98.6415L100.789 15.1997C104.257 15.1997 107.597 13.0315 107.597 8.53645C107.599 4.04509 104.298 2.10779 100.279 2.10779Z" fill="black"/>
<path d="M160.188 2.10779H155.284L147.473 20.1117H152.472L157.737 6.54233L161.341 15.8394H155.291L162.65 20.1117H167.999L160.188 2.10779Z" fill="black"/>
<path d="M140.287 5.66898C141.948 5.66898 143.61 6.17759 144.875 6.87865L146.427 3.30554C144.635 2.26358 142.396 1.66699 140.356 1.66699C133.942 1.66699 130.527 6.23991 130.527 11.1107C130.527 15.9814 133.942 20.558 140.356 20.558C142.396 20.558 144.635 19.9623 146.427 18.9158L144.875 15.3445C143.609 16.0465 141.948 16.5542 140.287 16.5542C137.736 16.5542 135.28 14.4263 135.28 11.1116C135.279 7.79598 137.736 5.66898 140.287 5.66898Z" fill="black"/>
<path d="M10.3446 0L0 6.00069H20.6909L10.3446 0Z" fill="black"/>
<path d="M0 17.9974L10.3446 24L0 6.00064V17.9974Z" fill="black"/>
<path d="M20.6901 18.0011V6.00064L10.3438 24L20.6901 18.0011Z" fill="black"/>
<path d="M31.0378 24L20.6914 17.9975H41.386L31.0378 24Z" fill="black"/>
<path d="M20.6914 6.00069L31.0378 0L20.6914 17.9975V6.00069Z" fill="black"/>
<path d="M41.3853 5.99795V17.9975L31.0371 0L41.3853 5.99795Z" fill="black"/>
</svg>
